<?xml version="1.0" encoding="UTF-8" standalone="no"?><svg xmlns="http://www.w3.org/2000/svg" xmlns:xlink="http://www.w3.org/1999/xlink" contentScriptType="application/ecmascript" contentStyleType="text/css" height="397px" preserveAspectRatio="none" style="width:185px;height:397px;background:#FFFFFF;" version="1.1" viewBox="0 0 185 397" width="185px" zoomAndPan="magnify"><defs><filter height="300%" id="f1ix4qnino48pj" width="300%" x="-1" y="-1"><feGaussianBlur result="blurOut" stdDeviation="2.0"/><feColorMatrix in="blurOut" result="blurOut2" type="matrix" values="0 0 0 0 0 0 0 0 0 0 0 0 0 0 0 0 0 0 .4 0"/><feOffset dx="4.0" dy="4.0" in="blurOut2" result="blurOut3"/><feBlend in="SourceGraphic" in2="blurOut3" mode="normal"/></filter></defs><g><ellipse cx="83.5" cy="20" fill="#000000" filter="url(#f1ix4qnino48pj)" rx="10" ry="10" style="stroke:none;stroke-width:1.0;"/><rect fill="#FEFECE" filter="url(#f1ix4qnino48pj)" height="35.0938" rx="12.5" ry="12.5" style="stroke:#A80036;stroke-width:1.5;" width="90" x="38.5" y="50"/><text fill="#000000" font-family="sans-serif" font-size="12" lengthAdjust="spacing" textLength="70" x="48.5" y="72.457">Set RTT filter</text><rect fill="#FEFECE" filter="url(#f1ix4qnino48pj)" height="35.0938" rx="12.5" ry="12.5" style="stroke:#A80036;stroke-width:1.5;" width="80" x="43.5" y="105.0938"/><text fill="#000000" font-family="sans-serif" font-size="12" lengthAdjust="spacing" textLength="60" x="53.5" y="127.5508">Reset time</text><rect fill="#FEFECE" filter="url(#f1ix4qnino48pj)" height="35.0938" rx="12.5" ry="12.5" style="stroke:#A80036;stroke-width:1.5;" width="108" x="29.5" y="204.1875"/><text fill="#000000" font-family="sans-serif" font-size="12" lengthAdjust="spacing" textLength="88" x="39.5" y="226.6445">Sync with server</text><polygon fill="#FEFECE" filter="url(#f1ix4qnino48pj)" points="83.5,160.1875,95.5,172.1875,83.5,184.1875,71.5,172.1875,83.5,160.1875" style="stroke:#A80036;stroke-width:1.5;"/><polygon fill="#FEFECE" filter="url(#f1ix4qnino48pj)" points="32,259.2813,135,259.2813,147,271.2813,135,283.2813,32,283.2813,20,271.2813,32,259.2813" style="stroke:#A80036;stroke-width:1.5;"/><text fill="#000000" font-family="sans-serif" font-size="11" lengthAdjust="spacing" textLength="103" x="32" y="275.7822">Check that sync is ok</text><text fill="#000000" font-family="sans-serif" font-size="11" lengthAdjust="spacing" textLength="24" x="147" y="268.8643">false</text><rect fill="#FEFECE" filter="url(#f1ix4qnino48pj)" height="35.0938" rx="12.5" ry="12.5" style="stroke:#A80036;stroke-width:1.5;" width="118" x="24.5" y="303.2813"/><text fill="#000000" font-family="sans-serif" font-size="12" lengthAdjust="spacing" textLength="98" x="34.5" y="325.7383">"Sync Successful"</text><ellipse cx="83.5" cy="369.375" fill="#FFFFFF" filter="url(#f1ix4qnino48pj)" rx="11" ry="11" style="stroke:#000000;stroke-width:1.0;"/><ellipse cx="83.5" cy="369.375" fill="#000000" rx="6" ry="6" style="stroke:#7F7F7F;stroke-width:1.0;"/><line style="stroke:#A80036;stroke-width:1.5;" x1="83.5" x2="83.5" y1="30" y2="50"/><polygon fill="#A80036" points="79.5,40,83.5,50,87.5,40,83.5,44" style="stroke:#A80036;stroke-width:1.0;"/><line style="stroke:#A80036;stroke-width:1.5;" x1="83.5" x2="83.5" y1="85.0938" y2="105.0938"/><polygon fill="#A80036" points="79.5,95.0938,83.5,105.0938,87.5,95.0938,83.5,99.0938" style="stroke:#A80036;stroke-width:1.0;"/><line style="stroke:#A80036;stroke-width:1.5;" x1="83.5" x2="83.5" y1="184.1875" y2="204.1875"/><polygon fill="#A80036" points="79.5,194.1875,83.5,204.1875,87.5,194.1875,83.5,198.1875" style="stroke:#A80036;stroke-width:1.0;"/><line style="stroke:#A80036;stroke-width:1.5;" x1="147" x2="159" y1="271.2813" y2="271.2813"/><polygon fill="#A80036" points="155,231.7344,159,221.7344,163,231.7344,159,227.7344" style="stroke:#A80036;stroke-width:1.5;"/><line style="stroke:#A80036;stroke-width:1.5;" x1="159" x2="159" y1="172.1875" y2="271.2813"/><line style="stroke:#A80036;stroke-width:1.5;" x1="159" x2="95.5" y1="172.1875" y2="172.1875"/><polygon fill="#A80036" points="105.5,168.1875,95.5,172.1875,105.5,176.1875,101.5,172.1875" style="stroke:#A80036;stroke-width:1.0;"/><line style="stroke:#A80036;stroke-width:1.5;" x1="83.5" x2="83.5" y1="239.2813" y2="259.2813"/><polygon fill="#A80036" points="79.5,249.2813,83.5,259.2813,87.5,249.2813,83.5,253.2813" style="stroke:#A80036;stroke-width:1.0;"/><line style="stroke:#A80036;stroke-width:1.5;" x1="83.5" x2="83.5" y1="140.1875" y2="160.1875"/><polygon fill="#A80036" points="79.5,150.1875,83.5,160.1875,87.5,150.1875,83.5,154.1875" style="stroke:#A80036;stroke-width:1.0;"/><line style="stroke:#A80036;stroke-width:1.5;" x1="83.5" x2="83.5" y1="283.2813" y2="303.2813"/><polygon fill="#A80036" points="79.5,293.2813,83.5,303.2813,87.5,293.2813,83.5,297.2813" style="stroke:#A80036;stroke-width:1.0;"/><line style="stroke:#A80036;stroke-width:1.5;" x1="83.5" x2="83.5" y1="338.375" y2="358.375"/><polygon fill="#A80036" points="79.5,348.375,83.5,358.375,87.5,348.375,83.5,352.375" style="stroke:#A80036;stroke-width:1.0;"/><!--MD5=[ac4a0ed3cb175f7e867ee09f88a9ff31]
@startuml flow_run

start

:Set RTT filter;
:Reset time;
repeat
    :Sync with server;
    repeat while (Check that sync is ok) is (false)
:"Sync Successful";

stop

@enduml

PlantUML version 1.2021.10(Mon Aug 30 15:43:48 CEST 2021)
(GPL source distribution)
Java Runtime: Java(TM) SE Runtime Environment
JVM: Java HotSpot(TM) 64-Bit Server VM
Default Encoding: Cp1252
Language: en
Country: US
--></g></svg>